; OM File Header - Saved 2009/10/26 10:58:51
; (6.04 :patc (om-make-point 103 185) (om-make-point 50 50) (om-make-point 809 659) "" 183 0 nil "2009/10/26 10:58:47")
; End File Header
(in-package :om)(load-lib-for (quote ("omtimepack")))(setf *om-current-persistent* (om-load-patch1 "m-partition" (quote ((om-load-boxcomment "comment" (om-make-point 244 54) (quote "original timepoints (chord-seq 1, played on F)$partitioned between chord-seq 2 (played on D)$and chord-seq 3 (played on C)") "" (om-make-point 392 28) nil (om-make-color 0 0 0) (om-make-font "Verdana" 10 :family "Verdana" :style (quote (:plain)) :mode (quote nil))) (om-load-editor-box1 "MULTI-SEQ" (quote multi-seq) (quote ((om-load-inputfun (quote input-funbox) "objs" "SELF" nil) (om-load-inputfun (quote input-funbox) "no documentation" "CHORD-SEQS" (list (let ((newobj (when (find-class (quote chord-seq) nil) (make-instance (quote chord-seq) :lmidic (quote ((6000))) :lonset (quote (0 1000)) :ldur (quote ((1000))) :lvel (quote ((100))) :loffset (quote ((0))) :lchan (quote ((1))) :legato 0)))) (load-port-info newobj (quote ((nil)))) (init-mus-color newobj (quote nil)) (set-extra-pairs newobj (quote nil)) (set-patch-pairs newobj (quote nil)) (set-tonalite newobj nil) newobj))))) (om-make-point 199 472) (om-make-point 310 161) (if (find-class (quote multi-seq) nil) (let ((newobj (make-instance (quote multi-seq) :chord-seqs (list (let ((newobj (when (find-class (quote chord-seq) nil) (make-instance (quote chord-seq) :lmidic (quote ((6500) (6500) (6500) (6500) (6500) (6500) (6500) (6500) (6500) (6500) (6500) (6500) (6500) (6500) (6500) (6500) (6500) (6500) (6500) (6500) (6500) (6500) (6500) (6500) (6500) (6500) (6500) (6500) (6500) (6500) (6500) (6500) (6500) (6500) (6500) (6500) (6500))) :lonset (quote (0 900 1150 1250 1350 2250 3150 3400 3500 3600 4500 4900 5000 5100 5350 5450 5550 5950 6050 6150 6400 6500 6600 7000 7100 7200 7450 7550 7650 8550 8950 9050 9150 9400 9500 9600 10500 11500)) :ldur (quote ((1000) (1000) (1000) (1000) (1000) (1000) (1000) (1000) (1000) (1000) (1000) (1000) (1000) (1000) (1000) (1000) (1000) (1000) (1000) (1000) (1000) (1000) (1000) (1000) (1000) (1000) (1000) (1000) (1000) (1000) (1000) (1000) (1000) (1000) (1000) (1000) (1000))) :lvel (quote ((100) (100) (100) (100) (100) (100) (100) (100) (100) (100) (100) (100) (100) (100) (100) (100) (100) (100) (100) (100) (100) (100) (100) (100) (100) (100) (100) (100) (100) (100) (100) (100) (100) (100) (100) (100) (100))) :loffset (quote ((0) (0) (0) (0) (0) (0) (0) (0) (0) (0) (0) (0) (0) (0) (0) (0) (0) (0) (0) (0) (0) (0) (0) (0) (0) (0) (0) (0) (0) (0) (0) (0) (0) (0) (0) (0) (0))) :lchan (quote ((1) (1) (1) (1) (1) (1) (1) (1) (1) (1) (1) (1) (1) (1) (1) (1) (1) (1) (1) (1) (1) (1) (1) (1) (1) (1) (1) (1) (1) (1) (1) (1) (1) (1) (1) (1) (1))) :legato 0)))) (load-port-info newobj (quote ((nil) (nil) (nil) (nil) (nil) (nil) (nil) (nil) (nil) (nil) (nil) (nil) (nil) (nil) (nil) (nil) (nil) (nil) (nil) (nil) (nil) (nil) (nil) (nil) (nil) (nil) (nil) (nil) (nil) (nil) (nil) (nil) (nil) (nil) (nil) (nil) (nil)))) (init-mus-color newobj (quote nil)) (set-extra-pairs newobj (quote nil)) (set-patch-pairs newobj (quote nil)) (set-tonalite newobj nil) newobj) (let ((newobj (when (find-class (quote chord-seq) nil) (make-instance (quote chord-seq) :lmidic (quote ((6200) (6200) (6200) (6200) (6200) (6200) (6200) (6200) (6200) (6200) (6200) (6200) (6200) (6200) (6200) (6200))) :lonset (quote (1150 1250 2250 3400 3600 4900 5100 6050 6400 6500 7000 7550 7650 8950 9150 9600 11500)) :ldur (quote ((1000) (1000) (1000) (1000) (1000) (1000) (1000) (1000) (1000) (1000) (1000) (1000) (1000) (1000) (1000) (1000))) :lvel (quote ((100) (100) (100) (100) (100) (100) (100) (100) (100) (100) (100) (100) (100) (100) (100) (100))) :loffset (quote ((0) (0) (0) (0) (0) (0) (0) (0) (0) (0) (0) (0) (0) (0) (0) (0))) :lchan (quote ((1) (1) (1) (1) (1) (1) (1) (1) (1) (1) (1) (1) (1) (1) (1) (1))) :legato 0)))) (load-port-info newobj (quote ((nil) (nil) (nil) (nil) (nil) (nil) (nil) (nil) (nil) (nil) (nil) (nil) (nil) (nil) (nil) (nil)))) (init-mus-color newobj (quote nil)) (set-extra-pairs newobj (quote nil)) (set-patch-pairs newobj (quote nil)) (set-tonalite newobj nil) newobj) (let ((newobj (when (find-class (quote chord-seq) nil) (make-instance (quote chord-seq) :lmidic (quote ((6000) (6000) (6000) (6000) (6000) (6000) (6000) (6000) (6000) (6000) (6000) (6000) (6000) (6000) (6000) (6000) (6000) (6000) (6000) (6000) (6000))) :lonset (quote (0 900 1350 3150 3500 4500 5000 5350 5450 5550 5950 6150 6600 7100 7200 7450 8550 9050 9400 9500 10500 11500)) :ldur (quote ((1000) (1000) (1000) (1000) (1000) (1000) (1000) (1000) (1000) (1000) (1000) (1000) (1000) (1000) (1000) (1000) (1000) (1000) (1000) (1000) (1000))) :lvel (quote ((100) (100) (100) (100) (100) (100) (100) (100) (100) (100) (100) (100) (100) (100) (100) (100) (100) (100) (100) (100) (100))) :loffset (quote ((0) (0) (0) (0) (0) (0) (0) (0) (0) (0) (0) (0) (0) (0) (0) (0) (0) (0) (0) (0) (0))) :lchan (quote ((1) (1) (1) (1) (1) (1) (1) (1) (1) (1) (1) (1) (1) (1) (1) (1) (1) (1) (1) (1) (1))) :legato 0)))) (load-port-info newobj (quote ((nil) (nil) (nil) (nil) (nil) (nil) (nil) (nil) (nil) (nil) (nil) (nil) (nil) (nil) (nil) (nil) (nil) (nil) (nil) (nil) (nil)))) (init-mus-color newobj (quote nil)) (set-extra-pairs newobj (quote nil)) (set-patch-pairs newobj (quote nil)) (set-tonalite newobj nil) newobj)) :from-file t))) (load-port-info newobj (quote (((nil) (nil) (nil) (nil) (nil) (nil) (nil) (nil) (nil) (nil) (nil) (nil) (nil) (nil) (nil) (nil) (nil) (nil) (nil) (nil) (nil) (nil) (nil) (nil) (nil) (nil) (nil) (nil) (nil) (nil) (nil) (nil) (nil) (nil) (nil) (nil) (nil)) ((nil) (nil) (nil) (nil) (nil) (nil) (nil) (nil) (nil) (nil) (nil) (nil) (nil) (nil) (nil) (nil)) ((nil) (nil) (nil) (nil) (nil) (nil) (nil) (nil) (nil) (nil) (nil) (nil) (nil) (nil) (nil) (nil) (nil) (nil) (nil) (nil) (nil))))) (init-mus-color newobj (quote nil)) (set-extra-pairs newobj (quote nil)) (set-patch-pairs newobj (quote nil)) (set-tonalite newobj nil) newobj)) nil nil (pairlis (quote (scale show-stems obj-mode palette-mode microplay winpos winsize mode grillestep notechancolor? zoom inport outport deltapict cmnpref staff fontsize approx)) (list nil (quote t) 0 0 nil (om-make-point 10 40) (om-make-point 500 280) 0 1000 nil 1 0 0 (om-make-point 0 -18) (let ((newobj (make-instance (quote edition-values)))) (setf (paper-size newobj) (om-make-point 600 800)) (setf (top-margin newobj) 2) (setf (left-margin newobj) 1) (setf (right-margin newobj) 1) (setf (bottom-margin newobj) 1) (setf (orientation newobj) nil) (setf (scale newobj) nil) (setf (system-space newobj) (quote (1 1 1))) (setf (line-space newobj) 1) (setf (title newobj) nil) (setf (show-title? newobj) nil) (setf (show-page? newobj) nil) (setf (sheet-id newobj) nil) (setf (page-mode newobj) nil) newobj) (list (quote g) (quote g) (quote g)) 24 2)) t nil nil nil) (om-load-boxcall (quote lispfun) "LIST2" (quote list) (quote ((om-load-inputfun (quote input-funbox) "add-input" "add-input" nil) (om-load-inputfun (quote input-funbox) "add-input" "add-input" nil) (om-load-inputfun (quote input-funbox) "add-input" "add-input" nil))) (om-make-point 349 406) nil nil nil nil 1) (om-load-boxcall (quote genfun) "THRU" (quote thru) (quote ((om-load-inputfun (quote input-funbox) "no documentation" "X" nil))) (om-make-point 376 176) nil nil nil nil 1) (om-load-boxcall (quote lispfun) "LENGTH11" (quote length) (quote ((om-load-inputfun (quote input-funbox) "SEQUENCE" "SEQUENCE" nil))) (om-make-point 408 244) nil nil nil nil 1) (om-load-boxcall (quote genfun) "CREATE-LIST11" (quote create-list) (quote ((om-load-inputfun (quote input-funbox) "number of elements" "COUNT" 10) (om-load-inputfun (quote input-funbox) "initial element" "ELEM" (list 6000)))) (om-make-point 375 309) nil nil nil nil 1) (om-load-editor-box1 "CHORD-SEQ11" (quote chord-seq) (quote ((om-load-inputfun (quote input-funbox) "objs" "SELF" nil) (om-load-inputfun (quote input-funbox) "no documentation" "LMIDIC" (list 6000)) (om-load-inputfun (quote input-funbox) "no documentation" "LONSET" (list 0 1000)) (om-load-inputfun (quote input-funbox) "no documentation" "LDUR" (list 1000)) (om-load-inputfun (quote input-funbox) "no documentation" "LVEL" (list 100)) (om-load-inputfun (quote input-funbox) "no documentation" "LOFFSET" (list 0)) (om-load-inputfun (quote input-funbox) "no documentation" "LCHAN" (list 1)) (om-load-inputfun (quote input-funbox) "no documentation" "LEGATO" 0))) (om-make-point 452 295) (om-make-point 137 90) (let ((newobj (when (find-class (quote chord-seq) nil) (make-instance (quote chord-seq) :lmidic (quote ((6000) (6000) (6000) (6000) (6000) (6000) (6000) (6000) (6000) (6000) (6000) (6000) (6000) (6000) (6000) (6000) (6000) (6000) (6000) (6000) (6000))) :lonset (quote (0 900 1350 3150 3500 4500 5000 5350 5450 5550 5950 6150 6600 7100 7200 7450 8550 9050 9400 9500 10500 11500)) :ldur (quote ((1000) (1000) (1000) (1000) (1000) (1000) (1000) (1000) (1000) (1000) (1000) (1000) (1000) (1000) (1000) (1000) (1000) (1000) (1000) (1000) (1000))) :lvel (quote ((100) (100) (100) (100) (100) (100) (100) (100) (100) (100) (100) (100) (100) (100) (100) (100) (100) (100) (100) (100) (100))) :loffset (quote ((0) (0) (0) (0) (0) (0) (0) (0) (0) (0) (0) (0) (0) (0) (0) (0) (0) (0) (0) (0) (0))) :lchan (quote ((1) (1) (1) (1) (1) (1) (1) (1) (1) (1) (1) (1) (1) (1) (1) (1) (1) (1) (1) (1) (1))) :legato 0)))) (load-port-info newobj (quote ((nil) (nil) (nil) (nil) (nil) (nil) (nil) (nil) (nil) (nil) (nil) (nil) (nil) (nil) (nil) (nil) (nil) (nil) (nil) (nil) (nil)))) (init-mus-color newobj (quote nil)) (set-extra-pairs newobj (quote nil)) (set-patch-pairs newobj (quote nil)) (set-tonalite newobj nil) newobj) nil nil (pairlis (quote (scale show-stems obj-mode palette-mode microplay winpos winsize mode grillestep notechancolor? zoom inport outport deltapict cmnpref staff fontsize approx)) (list nil (quote t) 0 0 nil 2621450 18350450 0 1000 nil 1 0 0 (om-make-point 0 0) (let ((newobj (make-instance (quote edition-values)))) (setf (paper-size newobj) (om-make-point 600 800)) (setf (top-margin newobj) 2) (setf (left-margin newobj) 1) (setf (right-margin newobj) 1) (setf (bottom-margin newobj) 1) (setf (orientation newobj) nil) (setf (scale newobj) nil) (setf (system-space newobj) (quote (1))) (setf (line-space newobj) 1) (setf (title newobj) nil) (setf (show-title? newobj) nil) (setf (show-page? newobj) nil) (setf (sheet-id newobj) nil) (setf (page-mode newobj) nil) newobj) (quote g) 24 2)) t nil nil nil) (om-load-boxcall (quote lispfun) "LENGTH1" (quote length) (quote ((om-load-inputfun (quote input-funbox) "SEQUENCE" "SEQUENCE" nil))) (om-make-point 223 176) nil nil nil nil 1) (om-load-boxcall (quote genfun) "CREATE-LIST1" (quote create-list) (quote ((om-load-inputfun (quote input-funbox) "number of elements" "COUNT" 10) (om-load-inputfun (quote input-funbox) "initial element" "ELEM" (list 6200)))) (om-make-point 217 217) nil nil nil nil 1) (om-load-editor-box1 "CHORD-SEQ1" (quote chord-seq) (quote ((om-load-inputfun (quote input-funbox) "objs" "SELF" nil) (om-load-inputfun (quote input-funbox) "no documentation" "LMIDIC" (list 6000)) (om-load-inputfun (quote input-funbox) "no documentation" "LONSET" (list 0 1000)) (om-load-inputfun (quote input-funbox) "no documentation" "LDUR" (list 1000)) (om-load-inputfun (quote input-funbox) "no documentation" "LVEL" (list 100)) (om-load-inputfun (quote input-funbox) "no documentation" "LOFFSET" (list 0)) (om-load-inputfun (quote input-funbox) "no documentation" "LCHAN" (list 1)) (om-load-inputfun (quote input-funbox) "no documentation" "LEGATO" 0))) (om-make-point 253 291) (om-make-point 107 80) (let ((newobj (when (find-class (quote chord-seq) nil) (make-instance (quote chord-seq) :lmidic (quote ((6200) (6200) (6200) (6200) (6200) (6200) (6200) (6200) (6200) (6200) (6200) (6200) (6200) (6200) (6200) (6200))) :lonset (quote (1150 1250 2250 3400 3600 4900 5100 6050 6400 6500 7000 7550 7650 8950 9150 9600 10050)) :ldur (quote ((1000) (1000) (1000) (1000) (1000) (1000) (1000) (1000) (1000) (1000) (1000) (1000) (1000) (1000) (1000) (1000))) :lvel (quote ((100) (100) (100) (100) (100) (100) (100) (100) (100) (100) (100) (100) (100) (100) (100) (100))) :loffset (quote ((0) (0) (0) (0) (0) (0) (0) (0) (0) (0) (0) (0) (0) (0) (0) (0))) :lchan (quote ((1) (1) (1) (1) (1) (1) (1) (1) (1) (1) (1) (1) (1) (1) (1) (1))) :legato 0)))) (load-port-info newobj (quote ((nil) (nil) (nil) (nil) (nil) (nil) (nil) (nil) (nil) (nil) (nil) (nil) (nil) (nil) (nil) (nil)))) (init-mus-color newobj (quote nil)) (set-extra-pairs newobj (quote nil)) (set-patch-pairs newobj (quote nil)) (set-tonalite newobj nil) newobj) nil nil (pairlis (quote (scale show-stems obj-mode palette-mode microplay winpos winsize mode grillestep notechancolor? zoom inport outport deltapict cmnpref staff fontsize approx)) (list nil (quote t) 0 0 nil 2621450 18350450 0 1000 nil 1 0 0 (om-make-point 0 0) (let ((newobj (make-instance (quote edition-values)))) (setf (paper-size newobj) (om-make-point 600 800)) (setf (top-margin newobj) 2) (setf (left-margin newobj) 1) (setf (right-margin newobj) 1) (setf (bottom-margin newobj) 1) (setf (orientation newobj) nil) (setf (scale newobj) nil) (setf (system-space newobj) (quote (1))) (setf (line-space newobj) 1) (setf (title newobj) nil) (setf (show-title? newobj) nil) (setf (show-page? newobj) nil) (setf (sheet-id newobj) nil) (setf (page-mode newobj) nil) newobj) (quote g) 24 2)) t nil nil nil) (om-load-boxcall (quote lispfun) "LENGTH" (quote length) (quote ((om-load-inputfun (quote input-funbox) "SEQUENCE" "SEQUENCE" nil))) (om-make-point 81 154) nil nil nil nil 1) (om-load-boxcall (quote genfun) "CREATE-LIST" (quote create-list) (quote ((om-load-inputfun (quote input-funbox) "number of elements" "COUNT" 10) (om-load-inputfun (quote input-funbox) "initial element" "ELEM" (list 6500)))) (om-make-point 90 205) nil nil nil nil 1) (om-load-editor-box1 "CHORD-SEQ" (quote chord-seq) (quote ((om-load-inputfun (quote input-funbox) "objs" "SELF" nil) (om-load-inputfun (quote input-funbox) "no documentation" "LMIDIC" (list 6000)) (om-load-inputfun (quote input-funbox) "no documentation" "LONSET" (list 0 1000)) (om-load-inputfun (quote input-funbox) "no documentation" "LDUR" (list 1000)) (om-load-inputfun (quote input-funbox) "no documentation" "LVEL" (list 100)) (om-load-inputfun (quote input-funbox) "no documentation" "LOFFSET" (list 0)) (om-load-inputfun (quote input-funbox) "no documentation" "LCHAN" (list 1)) (om-load-inputfun (quote input-funbox) "no documentation" "LEGATO" 0))) (om-make-point 107 290) (om-make-point 124 80) (let ((newobj (when (find-class (quote chord-seq) nil) (make-instance (quote chord-seq) :lmidic (quote ((6500) (6500) (6500) (6500) (6500) (6500) (6500) (6500) (6500) (6500) (6500) (6500) (6500) (6500) (6500) (6500) (6500) (6500) (6500) (6500) (6500) (6500) (6500) (6500) (6500) (6500) (6500) (6500) (6500) (6500) (6500) (6500) (6500) (6500) (6500) (6500) (6500))) :lonset (quote (0 900 1150 1250 1350 2250 3150 3400 3500 3600 4500 4900 5000 5100 5350 5450 5550 5950 6050 6150 6400 6500 6600 7000 7100 7200 7450 7550 7650 8550 8950 9050 9150 9400 9500 9600 10500 11400)) :ldur (quote ((1000) (1000) (1000) (1000) (1000) (1000) (1000) (1000) (1000) (1000) (1000) (1000) (1000) (1000) (1000) (1000) (1000) (1000) (1000) (1000) (1000) (1000) (1000) (1000) (1000) (1000) (1000) (1000) (1000) (1000) (1000) (1000) (1000) (1000) (1000) (1000) (1000))) :lvel (quote ((100) (100) (100) (100) (100) (100) (100) (100) (100) (100) (100) (100) (100) (100) (100) (100) (100) (100) (100) (100) (100) (100) (100) (100) (100) (100) (100) (100) (100) (100) (100) (100) (100) (100) (100) (100) (100))) :loffset (quote ((0) (0) (0) (0) (0) (0) (0) (0) (0) (0) (0) (0) (0) (0) (0) (0) (0) (0) (0) (0) (0) (0) (0) (0) (0) (0) (0) (0) (0) (0) (0) (0) (0) (0) (0) (0) (0))) :lchan (quote ((1) (1) (1) (1) (1) (1) (1) (1) (1) (1) (1) (1) (1) (1) (1) (1) (1) (1) (1) (1) (1) (1) (1) (1) (1) (1) (1) (1) (1) (1) (1) (1) (1) (1) (1) (1) (1))) :legato 0)))) (load-port-info newobj (quote ((nil) (nil) (nil) (nil) (nil) (nil) (nil) (nil) (nil) (nil) (nil) (nil) (nil) (nil) (nil) (nil) (nil) (nil) (nil) (nil) (nil) (nil) (nil) (nil) (nil) (nil) (nil) (nil) (nil) (nil) (nil) (nil) (nil) (nil) (nil) (nil) (nil)))) (init-mus-color newobj (quote nil)) (set-extra-pairs newobj (quote nil)) (set-patch-pairs newobj (quote nil)) (set-tonalite newobj nil) newobj) nil nil (pairlis (quote (scale show-stems obj-mode palette-mode microplay winpos winsize mode grillestep notechancolor? zoom inport outport deltapict cmnpref staff fontsize approx)) (list nil (quote t) 0 0 nil 2621450 18350450 0 1000 nil 1 0 0 (om-make-point 0 0) (let ((newobj (make-instance (quote edition-values)))) (setf (paper-size newobj) (om-make-point 600 800)) (setf (top-margin newobj) 2) (setf (left-margin newobj) 1) (setf (right-margin newobj) 1) (setf (bottom-margin newobj) 1) (setf (orientation newobj) nil) (setf (scale newobj) nil) (setf (system-space newobj) (quote (1))) (setf (line-space newobj) 1) (setf (title newobj) nil) (setf (show-title? newobj) nil) (setf (show-page? newobj) nil) (setf (sheet-id newobj) nil) (setf (page-mode newobj) nil) newobj) (quote g) 24 2)) t nil nil nil) (om-load-boxcall (quote lispfun) "SECOND" (quote second) (quote ((om-load-inputfun (quote input-funbox) "LIST" "LIST" nil))) (om-make-point 292 156) nil nil nil nil 1) (om-load-boxcall (quote lispfun) "FIRST" (quote first) (quote ((om-load-inputfun (quote input-funbox) "LIST" "LIST" nil))) (om-make-point 190 164) nil nil nil nil 1) (om-load-boxcall (quote bastype) "list1" (quote list) (quote nil) (om-make-point 252 15) (om-make-point 49 40) (list (list 1 5) (list 5 1)) "((1 5)$ (5 1))" nil) (om-load-boxcall (quote genfun) "M-PARTITION" (quote m-partition) (quote ((om-load-inputfun (quote input-funbox) "list of timepoints to partition" "TIMEPOINTS" nil) (om-load-inputfun (quote input-funbox) "probability table (flat or nested list) to control random partitioning" "PTABLE" (list 1 1)) (om-load-inputfun (quote input-funbox) "context for first few random choices" "INIT-CONDS" nil))) (om-make-point 206 89) nil (list (list (list 1150 1250 2250 3400 3600 4900 5100 6050 6400 6500 7000 7550 7650 8950 9150 9600) (list 0 900 1350 3150 3500 4500 5000 5350 5450 5550 5950 6150 6600 7100 7200 7450 8550 9050 9400 9500 10500)) (list 0 1)) "&" nil 2) (om-load-boxinstance "list" (let ((copy (make-instance (quote omlistinstance) :name "timepoints" :icon 129))) (setf (instance copy) (list 0 900 1150 1250 1350 2250 3150 3400 3500 3600 4500 4900 5000 5100 5350 5450 5550 5950 6050 6150 6400 6500 6600 7000 7100 7200 7450 7550 7650 8550 8950 9050 9150 9400 9500 9600 10500)) (setf (edition-params copy) (pairlis (quote (deltapict outport inport zoom cmnpref notechancolor? grillestep mode winsize winpos)) (list (om-make-point 0 0) 0 0 1 (list 1 15 2 2 1) nil 1000 0 18350450 2621450))) (setf (create-info copy) (quote (nil nil))) (setf (doc copy) (str-with-nl "")) copy) (quote nil) (om-make-point 140 21) "timepoints" (om-make-point 45 40)))) (quote ((2 0 1 1 nil 0) (12 0 2 0 nil 0) (9 0 2 1 nil 0) (6 0 2 2 nil 0) (13 0 3 0 nil 0) (3 0 4 0 nil 0) (4 0 5 0 nil 0) (5 0 6 1 nil 0) (3 0 6 2 nil 0) (14 0 7 0 nil 0) (7 0 8 0 nil 0) (8 0 9 1 nil 0) (14 0 9 2 nil 0) (17 0 10 0 nil 0) (10 0 11 0 nil 0) (11 0 12 1 nil 0) (17 0 12 2 nil 0) (16 0 13 0 nil 0) (16 0 14 0 nil 0) (17 0 16 0 nil 0) (15 0 16 1 nil 0))) nil 6.04))
